<svg width="13px" height="16px" viewBox="19 21 13 16" version="1.1" xmlns="http://www.w3.org/2000/svg" xmlns:xlink="http://www.w3.org/1999/xlink">
  <path d="M30.375,25 L27.775,25 C27.45,25 27.2875,24.68 27.45,24.44 C27.69375,23.96 27.9375,23.4 27.9375,23 C27.9375,21.88 27.04375,21 25.90625,21 C24.76875,21 23.875,21.88 23.875,23 C23.875,23.4 24.11875,23.96 24.3625,24.44 C24.525,24.68 24.28125,25 24.0375,25 L20.625,25 C19.73125,25 19,25.72 19,26.6 L19,28.52 C19,29 19.4875,29.4 19.975,29.24 C20.38125,29.08 20.7875,29 21.03125,29 C22.16875,29 23.0625,29.88 23.0625,31 C23.0625,32.12 22.16875,33 21.03125,33 C20.7875,33 20.38125,32.92 19.975,32.76 C19.4875,32.68 19,33 19,33.48 L19,35.4 C19,36.28 19.73125,37 20.625,37 L30.375,37 C31.26875,37 32,36.28 32,35.4 L32,26.6 C32,25.72 31.26875,25 30.375,25 Z" id="Shape" stroke="none" fill="#999999" fill-rule="evenodd"></path>
</svg>
