<svg xmlns="http://www.w3.org/2000/svg" xmlns:xlink="http://www.w3.org/1999/xlink" width="24" height="24" viewBox="0 0 24 24">
  <defs>
    <path id="arrow-up-a" d="M7.6916556,-3.10752092e-16 L16.3083444,3.10752092e-16 C18.9829006,-1.80555915e-16 19.9527593,0.278476833 20.9305371,0.801398111 C21.9083149,1.32431939 22.6756806,2.09168511 23.1986019,3.06946289 C23.7215232,4.04724067 24,5.01709938 24,7.6916556 L24,16.3083444 C24,18.9829006 23.7215232,19.9527593 23.1986019,20.9305371 C22.6756806,21.9083149 21.9083149,22.6756806 20.9305371,23.1986019 C19.9527593,23.7215232 18.9829006,24 16.3083444,24 L7.6916556,24 C5.01709938,24 4.04724067,23.7215232 3.06946289,23.1986019 C2.09168511,22.6756806 1.32431939,21.9083149 0.801398111,20.9305371 C0.278476833,19.9527593 1.2037061e-16,18.9829006 -2.07168062e-16,16.3083444 L2.07168062e-16,7.6916556 C-1.2037061e-16,5.01709938 0.278476833,4.04724067 0.801398111,3.06946289 C1.32431939,2.09168511 2.09168511,1.32431939 3.06946289,0.801398111 C4.04724067,0.278476833 5.01709938,1.80555915e-16 7.6916556,-3.10752092e-16 Z"/>
  </defs>
  <g fill="none" fill-rule="evenodd">
    <mask id="arrow-up-b" fill="#fff">
      <use xlink:href="#arrow-up-a"/>
    </mask>
    <use fill="#EEE" xlink:href="#arrow-up-a"/>
    <path fill="#999" d="M11.0765048,9.36396103 L7.38252422,12.8786797 C6.87249193,13.363961 6.87249193,14.1507576 7.38252422,14.636039 C7.89255651,15.1213203 8.71948224,15.1213203 9.22951453,14.636039 L12,12 L14.7704855,14.636039 C15.2805178,15.1213203 16.1074435,15.1213203 16.6174758,14.636039 C17.1275081,14.1507576 17.1275081,13.363961 16.6174758,12.8786797 L12.9234952,9.36396103 C12.4134629,8.87867966 11.5865371,8.87867966 11.0765048,9.36396103 Z" mask="url(#arrow-up-b)"/>
  </g>
</svg>
