<svg version="1.1" viewBox="0 0 36 36" xmlns="http://www.w3.org/2000/svg">
  <path d="m15.55 11 0.15411 0.20013c-2.774 0.86665-4.0531 2.1833-4.0531 2.1833l0.027754-0.016126c0.091681-0.052854 0.40632-0.23109 0.88149-0.4672 1.649-0.78332 2.9589-0.99998 3.4983-1.05 0.092466-0.016666 0.16952-0.033333 0.26199-0.033333 0.94007-0.13333 2.0034-0.16666 3.113-0.033333 1.464 0.18333 3.036 0.64999 4.6387 1.6l-0.017432-0.0173c-0.15716-0.15329-1.3807-1.2924-3.8199-2.0993l0.21575-0.2668 0.050841 1.91e-4c0.33392 0.0060313 2.2622 0.11358 4.2796 1.7499 0 0 2.2192 4.3499 2.2192 9.7165 0 0-1.3099 2.4166-4.7158 2.5333 0 0-0.55479-0.71665-1.0171-1.35 2.0188-0.61665 2.7894-1.9833 2.7894-1.9833-0.63185 0.44999-1.2329 0.76665-1.7723 0.98331-0.77055 0.34999-1.5103 0.58332-2.2346 0.71665-1.4795 0.29999-2.8356 0.21666-3.9914-0.016666-0.87842-0.18333-1.6336-0.44999-2.2654-0.71665-0.35445-0.15-0.73973-0.33333-1.125-0.56666-0.046233-0.033333-0.092466-0.049999-0.1387-0.083332-0.030822-0.016666-0.046233-0.033333-0.061644-0.049999-0.2774-0.16666-0.43151-0.28333-0.43151-0.28333s0.73973 1.3333 2.6969 1.9666c-0.46233 0.63332-1.0325 1.3833-1.0325 1.3833-3.4058-0.11666-4.7003-2.5333-4.7003-2.5333 0-5.3666 2.2192-9.7165 2.2192-9.7165 2.2192-1.8 4.3305-1.7501 4.3305-1.7501zm-0.4363 6.5191c-0.90158 0-1.6134 0.71499-1.6134 1.5873 0 0.87228 0.72759 1.5873 1.6134 1.5873 0.90158 0 1.6134-0.71499 1.6134-1.5873 0.015817-0.87228-0.71178-1.5873-1.6134-1.5873zm5.7733 0c-0.90158 0-1.6134 0.71499-1.6134 1.5873 0 0.87228 0.72759 1.5873 1.6134 1.5873 0.90158 0 1.6134-0.71499 1.6134-1.5873 0-0.87228-0.71178-1.5873-1.6134-1.5873z"/>
</svg>
