<svg width="96px" height="28px" viewBox="0 0 96 28" version="1.1" xmlns="http://www.w3.org/2000/svg" xmlns:xlink="http://www.w3.org/1999/xlink">
  <g id="Symbols" stroke="none" stroke-width="1" fill="none" fill-rule="evenodd">
    <g id="Artboard">
      <g id="Group">
        <rect id="background" fill="#FF613E" x="0" y="0" width="28" height="28" rx="5"></rect>
        <path d="M15,13 L15,11 L13,11 L13,13 L11,13 L11,15 L13,15 L13,17 L15,17 L15,15 L17,15 L17,13 L15,13 Z M9.97704962,9 L18.0229504,9 C18.5703125,9 19,9.43744001 19,9.97704962 L19,18.0229504 C19,18.5703125 18.56256,19 18.0229504,19 L9.97704962,19 C9.4296875,19 9,18.56256 9,18.0229504 L9,9.97704962 C9,9.4296875 9.43744001,9 9.97704962,9 Z" id="Combined-Shape" fill="#FFFFFF"></path>
      </g>
      <rect id="background" stroke="#4267B2" stroke-width="0.5" fill="#4465B8" x="0.25" y="0.25" width="30.5" height="27.5" rx="5"></rect>
      <path d="M14,13.1571909 L15.80023,11.0931632 L16.8015414,9.24372206 L16.8015414,8 C17.5976134,7.87883258 18.1553507,7.99611587 18.4747532,8.35184985 C18.953857,8.88545083 18.8397217,9.52202189 18.8397217,10.2700195 C18.8397217,10.7686846 18.7180655,11.2618667 18.4747532,11.7495658 L18.028979,12.2838312 L21.810054,12.2838312 L22,13.1571909 L20.5142896,18.4909276 C18.9951919,18.5320096 17.8214542,18.5320096 16.9930764,18.4909276 C16.1646987,18.4498456 15.1670065,18.3421572 14,18.1678624 L14,13.1571909 Z M10,13.2608696 L13,13.2608696 L13,19 L10,19 L10,13.2608696 Z" id="Combined-Shape" fill="#FFFFFF" fill-rule="nonzero"></path>
    </g>
  </g>
</svg>
