<svg width="36" height="36" xmlns="http://www.w3.org/2000/svg" xmlns:xlink="http://www.w3.org/1999/xlink"><defs><path d="M26 19l-7 6v-6h-2c-1.65685 0-3-1.34315-3-3V6c0-1.65685 1.34315-3 3-3h16c1.65685 0 3 1.34315 3 3v10c0 1.65685-1.34315 3-3 3h-7z" id="b"/><filter x="-29.5%" y="-11.4%" width="159.1%" height="163.6%" filterUnits="objectBoundingBox" id="a"><feMorphology radius="2" in="SourceAlpha" result="shadowSpreadOuter1"/><feOffset dy="5" in="shadowSpreadOuter1" result="shadowOffsetOuter1"/><feGaussianBlur stdDeviation="2" in="shadowOffsetOuter1" result="shadowBlurOuter1"/><feColorMatrix values="0 0 0 0 0 0 0 0 0 0 0 0 0 0 0 0 0 0 0.299054574 0" in="shadowBlurOuter1"/></filter><path d="M8.61538 32.25H2.84615C1.82655 32.25 1 31.41053 1 30.375v-7.5C1 21.83947 1.82655 21 2.84615 21h11.3077C15.17345 21 16 21.83947 16 22.875v7.5c0 1.03553-.82655 1.875-1.84615 1.875h-1.23077V36l-4.3077-3.75z" id="d"/><filter x="-43.3%" y="-16.7%" width="186.7%" height="186.7%" filterUnits="objectBoundingBox" id="c"><feMorphology radius="1.5" in="SourceAlpha" result="shadowSpreadOuter1"/><feOffset dy="4" in="shadowSpreadOuter1" result="shadowOffsetOuter1"/><feGaussianBlur stdDeviation="2" in="shadowOffsetOuter1" result="shadowBlurOuter1"/><feColorMatrix values="0 0 0 0 0 0 0 0 0 0 0 0 0 0 0 0 0 0 0.253368433 0" in="shadowBlurOuter1"/></filter></defs><g fill="none" fill-rule="evenodd"><g fill-rule="nonzero"><use fill="#000" filter="url(#a)" xlink:href="#b"/><use fill="#FFF" xlink:href="#b"/></g><path d="M7 10h1c.55228 0 1 .44772 1 1s-.44772 1-1 1H7v1c0 .55228-.44772 1-1 1s-1-.44772-1-1v-1H4c-.55228 0-1-.44772-1-1s.44772-1 1-1h1V9c0-.55228.44772-1 1-1s1 .44772 1 1v1z" fill-opacity=".7496" fill="#FFF" fill-rule="nonzero"/><path d="M10.2071 16.5l.35356-.35355c.19526-.19527.51184-.19527.7071 0 .19527.19526.19527.51184 0 .7071l-.35355.35356.35356.35355c.19526.19526.19526.51184 0 .7071-.19527.19527-.51185.19527-.70711 0l-.35355-.35355-.35356.35356c-.19526.19526-.51184.19526-.7071 0-.19527-.19527-.19527-.51185 0-.70711L9.5 17.20711l-.35355-.35356c-.19527-.19526-.19527-.51184 0-.7071.19526-.19527.51184-.19527.7071 0l.35356.35355z" fill-opacity=".49907" fill="#FFF" fill-rule="nonzero"/><path d="M22.281 9.16272c0-.22211.08539-.40238.25619-.5408.1708-.13842.38476-.20763.64187-.20763.2608 0 .47659.06921.64739.20763.1708.13842.2562.31869.2562.5408 0 .2189-.08449.39675-.25345.53356-.16896.13681-.38567.20522-.65014.20522-.26079 0-.47566-.0684-.64462-.20522-.16897-.1368-.25345-.31466-.25345-.53356zm.55096 6.4027L22 15.18398l.19835-.31386c.2461-.39273.37282-.78384.38016-1.17335v-1.0816h1.34436l-.00551.96572c-.00368.35732-.10652.71785-.30854 1.0816-.20203.36376-.46098.66474-.77686.90295zM28 11.05553c0 .72752-.11937 1.42766-.35813 2.10044-.23875.67279-.58218 1.2667-1.0303 1.78175-.44812.51505-.92745.86915-1.43802 1.06229l-.30854-.73877c.52159-.34444.93297-.87558 1.23416-1.59344.3012-.71785.4573-1.54353.46832-2.47706v-.25592c0-.9625-.14967-1.81071-.44903-2.54466-.29936-.73395-.71717-1.2844-1.25345-1.65138L25.17355 6c.49955.18993.97062.53436 1.41323 1.03332.4426.49895.78604 1.07999 1.0303 1.74312.24426.66313.3719 1.35039.38292 2.0618v.21729z" fill="#F26565"/><g fill-rule="nonzero"><use fill="#000" filter="url(#c)" xlink:href="#d"/><use fill="#FFA300" xlink:href="#d"/></g><path d="M5 28.28697c0-.20246.07027-.36678.21082-.49296.14054-.12617.3166-.18926.52817-.18926.2146 0 .39216.06309.5327.18926.14055.12618.21082.2905.21082.49296 0 .19953-.06951.36165-.20855.48636-.13903.1247-.31735.18706-.53497.18706-.2146 0-.3914-.06236-.53044-.18706C5.06952 28.64862 5 28.4865 5 28.28697zm0-3.60475c0-.20247.07027-.36679.21082-.49296.14054-.12617.3166-.18926.52817-.18926.2146 0 .39216.06309.5327.18926.14055.12617.21082.2905.21082.49296 0 .19953-.06951.36165-.20855.48635-.13903.12471-.31735.18706-.53497.18706-.2146 0-.3914-.06235-.53044-.18706C5.06952 25.04387 5 24.88175 5 24.68222zm2.35298 1.80458c0-.47242.0937-.89349.28109-1.2632.18739-.36973.45714-.65582.80926-.85828.35212-.20247.7609-.3037 1.22636-.3037.66192 0 1.20218.1966 1.62079.58979.41861.3932.6521.92723.70045 1.60211l.00907.3257c0 .73064-.21006 1.31676-.63018 1.75837-.42012.4416-.9838.66241-1.69106.66241s-1.2717-.22007-1.69333-.66021c-.42164-.44014-.63245-1.03873-.63245-1.79578v-.05721zm1.31023.09243c0 .45188.08765.79738.26296 1.03653.1753.23914.42616.35871.75259.35871.31736 0 .5652-.1181.74352-.35431.17833-.23621.26749-.614.26749-1.13336 0-.44308-.08916-.78639-.26749-1.02993-.17833-.24355-.42919-.36532-.7526-.36532-.32037 0-.56821.12104-.74351.36312-.1753.24207-.26296.61692-.26296 1.12456z" fill="#FFF"/><path d="M21.2071 28.5l.35356-.35355c.19526-.19527.51184-.19527.7071 0 .19527.19526.19527.51184 0 .7071l-.35355.35356.35356.35355c.19526.19526.19526.51184 0 .7071-.19527.19527-.51185.19527-.70711 0l-.35355-.35355-.35356.35356c-.19526.19526-.51184.19526-.7071 0-.19527-.19527-.19527-.51185 0-.70711l.35355-.35355-.35355-.35356c-.19527-.19526-.19527-.51184 0-.7071.19526-.19527.51184-.19527.7071 0l.35356.35355z" fill="#FFA300" fill-rule="nonzero" opacity=".49944"/><path d="M31 27h1c.55228 0 1 .44772 1 1s-.44772 1-1 1h-1v1c0 .55228-.44772 1-1 1s-1-.44772-1-1v-1h-1c-.55228 0-1-.44772-1-1s.44772-1 1-1h1v-1c0-.55228.44772-1 1-1s1 .44772 1 1v1z" fill="#FFA300" fill-rule="nonzero" opacity=".74721"/></g></svg>
