<svg xmlns="http://www.w3.org/2000/svg" width="16" height="16" viewBox="0 0 16 16">
  <path fill="#999" fill-rule="evenodd" d="M4.40948227,4.40948227 C4.95545864,3.86350591 5.84066123,3.86350591 6.38663759,4.40948227 L12,10.0228447 L17.6133624,4.40948227 C18.1593388,3.86350591 19.0445414,3.86350591 19.5905177,4.40948227 C20.1364941,4.95545864 20.1364941,5.84066123 19.5905177,6.38663759 L13.9771553,12 L19.5905177,17.6133624 C20.1364941,18.1593388 20.1364941,19.0445414 19.5905177,19.5905177 C19.0445414,20.1364941 18.1593388,20.1364941 17.6133624,19.5905177 L12,13.9771553 L6.38663759,19.5905177 C5.84066123,20.1364941 4.95545864,20.1364941 4.40948227,19.5905177 C3.86350591,19.0445414 3.86350591,18.1593388 4.40948227,17.6133624 L10.0228447,12 L4.40948227,6.38663759 C3.86350591,5.84066123 3.86350591,4.95545864 4.40948227,4.40948227 Z" transform="translate(-4 -4)"/>
</svg>
