<svg xmlns="http://www.w3.org/2000/svg" width="20" height="17" viewBox="0 0 20 17">
  <path fill="#999" fill-rule="evenodd" d="M20.5,17 C21.3284271,17 22,17.6715729 22,18.5 C22,19.3284271 21.3284271,20 20.5,20 L3.5,20 C2.67157288,20 2,19.3284271 2,18.5 C2,17.6715729 2.67157288,17 3.5,17 L20.5,17 Z M20.5,10 C21.3284271,10 22,10.6715729 22,11.5 C22,12.3284271 21.3284271,13 20.5,13 L3.5,13 C2.67157288,13 2,12.3284271 2,11.5 C2,10.6715729 2.67157288,10 3.5,10 L20.5,10 Z M20.5,3 C21.3284271,3 22,3.67157288 22,4.5 C22,5.32842712 21.3284271,6 20.5,6 L3.5,6 C2.67157288,6 2,5.32842712 2,4.5 C2,3.67157288 2.67157288,3 3.5,3 L20.5,3 Z" transform="translate(-2 -3)"/>
</svg>
