<svg version="1.1" viewBox="0 0 36 36" xmlns="http://www.w3.org/2000/svg">
  <path d="m18.987 9.0007c1.5676 0.0031597 1.912 0.01628 2.7243 0.053342 0.95797 0.043694 1.6122 0.19585 2.1847 0.41836 0.59185 0.22997 1.0938 0.53772 1.5942 1.0381 0.50035 0.50039 0.8081 1.0023 1.0381 1.5942 0.22247 0.57248 0.37463 1.2267 0.41832 2.1847 0.040432 0.88613 0.05237 1.2155 0.053967 3.1834v1.0548c-0.0015974 1.9679-0.013536 2.2973-0.053967 3.1834-0.043694 0.95797-0.19585 1.6122-0.41832 2.1847-0.23001 0.59185-0.53776 1.0938-1.0381 1.5942-0.50039 0.50035-1.0023 0.8081-1.5942 1.0381-0.57248 0.22247-1.2267 0.37463-2.1847 0.41832-0.88613 0.040432-1.2155 0.05237-3.1834 0.053967h-1.0548c-1.968-0.0015974-2.2973-0.013536-3.1834-0.053967-0.95797-0.043694-1.6122-0.19585-2.1847-0.41832-0.59185-0.23001-1.0938-0.53776-1.5942-1.0381-0.50035-0.50039-0.8081-1.0023-1.0381-1.5942-0.22251-0.57248-0.37467-1.2267-0.41836-2.1847-0.037062-0.81229-0.050182-1.1567-0.053342-2.7243v-1.973c0.0031597-1.5676 0.01628-1.912 0.053342-2.7243 0.043694-0.95797 0.19585-1.6122 0.41836-2.1847 0.22997-0.59185 0.53772-1.0938 1.0381-1.5942 0.50039-0.50035 1.0023-0.8081 1.5942-1.0381 0.57248-0.22251 1.2267-0.37467 2.1847-0.41836 0.81229-0.037062 1.1567-0.050182 2.7243-0.053342zm-0.20808 1.6213h-1.5569c-1.7026 0.0022552-2.0233 0.013938-2.8585 0.052043-0.87752 0.040014-1.3541 0.18664-1.6712 0.30989-0.42011 0.16327-0.71993 0.3583-1.0349 0.67327-0.31497 0.31493-0.51 0.61475-0.67327 1.0349-0.12326 0.31715-0.26988 0.7937-0.30989 1.6712-0.038105 0.83516-0.049788 1.1558-0.052043 2.8585v1.5569c0.0022552 1.7026 0.013938 2.0233 0.052043 2.8584 0.040014 0.87752 0.18664 1.3541 0.30989 1.6712 0.16327 0.42011 0.35834 0.71993 0.67327 1.0349s0.61475 0.51 1.0349 0.67327c0.31715 0.12326 0.7937 0.26988 1.6712 0.30989 0.83506 0.038105 1.1557 0.049788 2.8584 0.052043h1.557c1.7027-0.0022552 2.0234-0.013938 2.8584-0.052043 0.87752-0.040014 1.3541-0.18664 1.6712-0.30989 0.42011-0.16327 0.71993-0.3583 1.0349-0.67327 0.31497-0.31493 0.51-0.61475 0.67327-1.0349 0.12326-0.31715 0.26988-0.7937 0.30989-1.6712 0.038105-0.83516 0.049788-1.1558 0.052043-2.8584v-1.5569c-0.0022552-1.7026-0.013938-2.0233-0.052043-2.8585-0.040014-0.87752-0.18664-1.3541-0.30989-1.6712-0.16327-0.42011-0.3583-0.71993-0.67327-1.0349-0.31493-0.31497-0.61475-0.51-1.0349-0.67327-0.31715-0.12326-0.7937-0.26988-1.6712-0.30989-0.83516-0.038105-1.1558-0.049788-2.8584-0.052043zm-0.77843 2.7564c2.5525 0 4.6217 2.0692 4.6217 4.6218 0 2.5525-2.0692 4.6217-4.6217 4.6217-2.5526 0-4.6218-2.0692-4.6218-4.6217 0-2.5526 2.0692-4.6218 4.6218-4.6218zm0 1.6217c-1.6569 0-3.0001 1.3432-3.0001 3.0001s1.3432 3.0001 3.0001 3.0001 3.0001-1.3432 3.0001-3.0001-1.3432-3.0001-3.0001-3.0001zm4.8043-2.8843c0.59649 0 1.0801 0.48356 1.0801 1.0801s-0.48356 1.08-1.0801 1.08c-0.59646 0-1.08-0.48352-1.08-1.08s0.48356-1.0801 1.08-1.0801z"/>
</svg>
