<svg width="28px" height="28px" viewBox="0 0 28 28" version="1.1" xmlns="http://www.w3.org/2000/svg" xmlns:xlink="http://www.w3.org/1999/xlink">
  <defs>
    <path d="M14.0000198,4 C16.7158369,4 17.0563809,4.01151157 18.1229872,4.06017771 C19.1873706,4.10872478 19.9143063,4.27778605 20.55038,4.5250069 C21.2079684,4.78052401 21.7656443,5.12245728 22.3216134,5.67838663 C22.8775427,6.23435568 23.219476,6.79203161 23.4750328,7.44962002 C23.722214,8.0856937 23.8912752,8.81262938 23.9398223,9.87701279 C23.9884884,10.9436191 24,11.2841631 24,14.0000198 C24,16.7158369 23.9884884,17.0563809 23.9398223,18.1229872 C23.8912752,19.1873706 23.722214,19.9143063 23.4750328,20.55038 C23.219476,21.2079684 22.8775427,21.7656443 22.3216134,22.3216134 C21.7656443,22.8775427 21.2079684,23.219476 20.55038,23.4750328 C19.9143063,23.722214 19.1873706,23.8912752 18.1229872,23.9398223 C17.0563809,23.9884884 16.7158369,24 14.0000198,24 C11.2841631,24 10.9436191,23.9884884 9.87701279,23.9398223 C8.81262938,23.8912752 8.0856937,23.722214 7.44962002,23.4750328 C6.79203161,23.219476 6.23435568,22.8775427 5.67838663,22.3216134 C5.12245728,21.7656443 4.78052401,21.2079684 4.5250069,20.55038 C4.27778605,19.9143063 4.10872478,19.1873706 4.06017771,18.1229872 C4.01151157,17.0563809 4,16.7158369 4,14.0000198 C4,11.2841631 4.01151157,10.9436191 4.06017771,9.87701279 C4.10872478,8.81262938 4.27778605,8.0856937 4.5250069,7.44962002 C4.78052401,6.79203161 5.12245728,6.23435568 5.67838663,5.67838663 C6.23435568,5.12245728 6.79203161,4.78052401 7.44962002,4.5250069 C8.0856937,4.27778605 8.81262938,4.10872478 9.87701279,4.06017771 C10.9436191,4.01151157 11.2841631,4 14.0000198,4 Z M14.0000198,5.80179858 C11.3298918,5.80179858 11.0136015,5.81200021 9.95914187,5.86011063 C8.98415175,5.9045691 8.45465931,6.06747764 8.10228624,6.2044256 C7.635512,6.38583204 7.30239103,6.60252738 6.95247906,6.95247906 C6.60252738,7.30239103 6.38583204,7.635512 6.2044256,8.10228624 C6.06747764,8.45465931 5.9045691,8.98415175 5.86011063,9.95914187 C5.81200021,11.0136015 5.80179858,11.3298918 5.80179858,14.0000198 C5.80179858,16.6701082 5.81200021,16.9863985 5.86011063,18.0408581 C5.9045691,19.0158483 6.06747764,19.5453407 6.2044256,19.8977138 C6.38583204,20.364488 6.60256708,20.697609 6.95247906,21.0475209 C7.30239103,21.3974726 7.635512,21.614168 8.10228624,21.7955744 C8.45465931,21.9325224 8.98415175,22.0954309 9.95914187,22.1398894 C11.0134824,22.1879998 11.3296933,22.1982014 14.0000198,22.1982014 C16.6703067,22.1982014 16.9865573,22.1879998 18.0408581,22.1398894 C19.0158483,22.0954309 19.5453407,21.9325224 19.8977138,21.7955744 C20.364488,21.614168 20.697609,21.3974726 21.0475209,21.0475209 C21.3974726,20.697609 21.614168,20.364488 21.7955744,19.8977138 C21.9325224,19.5453407 22.0954309,19.0158483 22.1398894,18.0408581 C22.1879998,16.9863985 22.1982014,16.6701082 22.1982014,14.0000198 C22.1982014,11.3298918 22.1879998,11.0136015 22.1398894,9.95914187 C22.0954309,8.98415175 21.9325224,8.45465931 21.7955744,8.10228624 C21.614168,7.635512 21.3974726,7.30239103 21.0475209,6.95247906 C20.697609,6.60252738 20.364488,6.38583204 19.8977138,6.2044256 C19.5453407,6.06747764 19.0158483,5.9045691 18.0408581,5.86011063 C16.9863985,5.81200021 16.6701082,5.80179858 14.0000198,5.80179858 Z M14.00002,17.3607088 C15.8560769,17.3607088 17.3607088,15.8560769 17.3607088,14.00002 C17.3607088,12.1439231 15.8560769,10.6392912 14.00002,10.6392912 C12.1439231,10.6392912 10.6392912,12.1439231 10.6392912,14.00002 C10.6392912,15.8560769 12.1439231,17.3607088 14.00002,17.3607088 Z M14.00002,8.82269504 C16.859365,8.82269504 19.177305,11.140635 19.177305,14.00002 C19.177305,16.859365 16.859365,19.177305 14.00002,19.177305 C11.140635,19.177305 8.82269504,16.859365 8.82269504,14.00002 C8.82269504,11.140635 11.140635,8.82269504 14.00002,8.82269504 Z M20.5957447,8.60994902 C20.5957447,9.27583047 20.0559324,9.81560284 19.390051,9.81560284 C18.7242094,9.81560284 18.1843972,9.27583047 18.1843972,8.60994902 C18.1843972,7.94406757 18.7242094,7.40425532 19.390051,7.40425532 C20.0559324,7.40425532 20.5957447,7.94406757 20.5957447,8.60994902 Z" id="path-1"></path>
    <linearGradient x1="50%" y1="0%" x2="50%" y2="100%" id="linearGradient-3">
      <stop stop-color="#5662D0" offset="0%"></stop>
      <stop stop-color="#D03083" offset="100%"></stop>
    </linearGradient>
    <radialGradient cx="50%" cy="50%" fx="50%" fy="50%" r="49.4298681%" gradientTransform="translate(0.500000,0.500000),scale(0.725000,1.000000),rotate(90.000000),scale(1.000000,1.331234),translate(-0.500000,-0.500000)" id="radialGradient-4">
      <stop stop-color="#F3329F" offset="0%"></stop>
      <stop stop-color="#F3329F" stop-opacity="0" offset="100%"></stop>
    </radialGradient>
    <radialGradient cx="50%" cy="50%" fx="50%" fy="50%" r="49.4298681%" gradientTransform="translate(0.500000,0.500000),scale(0.709677,1.000000),rotate(90.000000),scale(1.000000,1.331234),translate(-0.500000,-0.500000)" id="radialGradient-5">
      <stop stop-color="#FF6B00" offset="0%"></stop>
      <stop stop-color="#FF6B00" stop-opacity="0" offset="100%"></stop>
    </radialGradient>
    <radialGradient cx="50%" cy="50%" fx="50%" fy="50%" r="50%" gradientTransform="translate(0.500000,0.500000),scale(0.724138,1.000000),rotate(90.000000),scale(1.000000,1.331234),translate(-0.500000,-0.500000)" id="radialGradient-6">
      <stop stop-color="#FFDB82" offset="0%"></stop>
      <stop stop-color="#FED97E" stop-opacity="0" offset="100%"></stop>
    </radialGradient>
  </defs>
  <g id="Page-1" stroke="none" stroke-width="1" fill="none" fill-rule="evenodd">
    <g id="In">
      <rect id="background" stroke="#000000" stroke-width="0.5" fill="#FFFFFF" x="0.25" y="0.25" width="27.5" height="27.5" rx="5"></rect>
      <mask id="mask-2" fill="white">
        <use xlink:href="#path-1"></use>
      </mask>
      <use id="Combined-Shape" fill="#0A0B09" xlink:href="#path-1"></use>
      <rect id="Rectangle" fill="url(#linearGradient-3)" fill-rule="nonzero" mask="url(#mask-2)" x="4" y="4" width="20" height="20"></rect>
      <ellipse id="Oval" fill="url(#radialGradient-4)" fill-rule="nonzero" mask="url(#mask-2)" cx="18" cy="16.5" rx="20" ry="14.5"></ellipse>
      <ellipse id="Oval" fill="url(#radialGradient-5)" fill-rule="nonzero" mask="url(#mask-2)" cx="12.5" cy="20" rx="15.5" ry="11"></ellipse>
      <ellipse id="Oval" fill="url(#radialGradient-6)" fill-rule="nonzero" mask="url(#mask-2)" cx="10.5" cy="24.5" rx="14.5" ry="10.5"></ellipse>
    </g>
  </g>
</svg>
