<svg xmlns="http://www.w3.org/2000/svg" xmlns:xlink="http://www.w3.org/1999/xlink" width="24" height="24" viewBox="0 0 24 24">
  <defs>
    <path id="profile-icon-2-a" d="M7.6916556,-3.10752092e-16 L16.3083444,3.10752092e-16 C18.9829006,-1.80555915e-16 19.9527593,0.278476833 20.9305371,0.801398111 C21.9083149,1.32431939 22.6756806,2.09168511 23.1986019,3.06946289 C23.7215232,4.04724067 24,5.01709938 24,7.6916556 L24,16.3083444 C24,18.9829006 23.7215232,19.9527593 23.1986019,20.9305371 C22.6756806,21.9083149 21.9083149,22.6756806 20.9305371,23.1986019 C19.9527593,23.7215232 18.9829006,24 16.3083444,24 L7.6916556,24 C5.01709938,24 4.04724067,23.7215232 3.06946289,23.1986019 C2.09168511,22.6756806 1.32431939,21.9083149 0.801398111,20.9305371 C0.278476833,19.9527593 1.2037061e-16,18.9829006 -2.07168062e-16,16.3083444 L2.07168062e-16,7.6916556 C-1.2037061e-16,5.01709938 0.278476833,4.04724067 0.801398111,3.06946289 C1.32431939,2.09168511 2.09168511,1.32431939 3.06946289,0.801398111 C4.04724067,0.278476833 5.01709938,1.80555915e-16 7.6916556,-3.10752092e-16 Z"/>
  </defs>
  <g fill="none" fill-rule="evenodd">
    <mask id="profile-icon-2-b" fill="#fff">
      <use xlink:href="#profile-icon-2-a"/>
    </mask>
    <use fill="#EEE" xlink:href="#profile-icon-2-a"/>
    <path fill="#999" d="M12.017254,5 C8.60071093,5 7.11853416,7.65882353 7.11853416,10.3411765 C7.11853416,13.8705882 9.37948177,15.4705882 9.37948177,16.6470588 C9.37948177,17.1176471 9.05290045,17.6823529 8.09827813,18.1529412 L3.09907175,20.6705882 C1.34055695,21.5647059 2.21981435,25 2.21981435,25 L21.789572,25 C21.789572,25 22.6437077,21.5411765 20.9103146,20.6705882 L15.9111082,18.1764706 C14.9816075,17.7058824 14.5796613,17.2117647 14.5796613,16.7647059 C14.5796613,15.6823529 16.8908522,14.1529412 16.8908522,10.3411765 C16.8908522,7.16470588 15.0820941,5 12.017254,5 L12.017254,5 Z" mask="url(#profile-icon-2-b)"/>
  </g>
</svg>
