<svg width="16px" height="14px" viewBox="0 2 16 14" version="1.1" xmlns="http://www.w3.org/2000/svg" xmlns:xlink="http://www.w3.org/1999/xlink">
  <g id="Group" stroke="none" stroke-width="1" fill="none" fill-rule="evenodd" transform="translate(8.000000, 9.000000) scale(-1, 1) translate(-8.000000, -9.000000) translate(0.000000, 2.000000)">
    <path d="M6.85714286,14 C3.04761905,14 0,10.8888889 0,7 C0,5.13333333 0.685714286,3.34444444 1.98095238,2.02222222 C3.27619048,0.7 5.02857143,0 6.85714286,0 C10.6666667,0 13.7142857,3.11111111 13.7142857,7 C13.7142857,7.46666667 13.4095238,7.77777778 12.952381,7.77777778 C12.4952381,7.77777778 12.1904762,7.46666667 12.1904762,7 C12.1904762,3.96666667 9.82857143,1.55555556 6.85714286,1.55555556 C5.40952381,1.55555556 4.11428571,2.1 3.04761905,3.11111111 C2.05714286,4.12222222 1.52380952,5.52222222 1.52380952,7 C1.52380952,10.0333333 3.88571429,12.4444444 6.85714286,12.4444444 C8.3047619,12.4444444 9.6,11.9 10.6666667,10.8888889 C10.9714286,10.5777778 11.4285714,10.5777778 11.7333333,10.8888889 C12.0380952,11.2 12.0380952,11.6666667 11.7333333,11.9777778 C10.4380952,13.3 8.68571429,14 6.85714286,14 L6.85714286,14 Z" id="Shape" fill="#999999"></path>
    <path d="M12.952381,7.77777778 C12.8,7.77777778 12.647619,7.7 12.4952381,7.62222222 L9.9047619,5.67777778 C9.6,5.44444444 9.52380952,4.9 9.75238095,4.58888889 C9.98095238,4.27777778 10.4380952,4.2 10.8190476,4.43333333 L13.4095238,6.37777778 C13.7142857,6.61111111 13.7904762,7.15555556 13.5619048,7.46666667 C13.4095238,7.7 13.1809524,7.77777778 12.952381,7.77777778 L12.952381,7.77777778 Z" id="Shape" fill="#999999"></path>
    <path d="M12.4952381,7.62222222 C12.1904762,7.38888889 12.1142857,6.84444444 12.3428571,6.53333333 L14.247619,3.88888889 C14.4761905,3.57777778 15.0095238,3.5 15.3142857,3.73333333 C15.6190476,3.96666667 15.6952381,4.51111111 15.4666667,4.82222222 L13.5619048,7.46666667 C13.4095238,7.7 13.1809524,7.77777778 12.952381,7.77777778 C12.8,7.77777778 12.647619,7.7 12.4952381,7.62222222 Z" id="Shape" fill="#999999"></path>
  </g>
</svg>
