<svg xmlns="http://www.w3.org/2000/svg" width="18" height="18" viewBox="0 0 18 18">
  <path fill="#999" fill-rule="evenodd" d="M16.2905758,13.9231087 C16.9399524,12.8578008 17.3136288,11.6044975 17.3136288,10.2657416 C17.3136288,6.37252569 13.9402879,3.00000031 10.0474457,3.00000031 C6.15460349,2.99886094 3,6.15490665 3,10.0481226 C3,13.9401992 6.37334089,17.3138639 10.2650439,17.3138639 C11.5603794,17.3138639 12.7714099,16.9617996 13.8138304,16.3522385 L18.1418689,20.6829712 C18.5656726,21.1056763 19.2526448,21.1056763 19.6753092,20.6829712 L20.7496289,19.6085484 C21.1722934,19.1858423 21.0184936,18.6514804 20.5958292,18.2287754 L16.2905758,13.9231087 Z M5.142,9.95991842 C5.142,7.29791288 7.298625,5.14108084 9.95925,5.14108084 C12.621,5.14108084 14.9925,7.5116834 14.9925,10.174814 C14.9925,12.8356945 12.83475,14.9936516 10.174125,14.9936516 C7.512375,14.9925265 5.142,12.6207988 5.142,9.95991842 L5.142,9.95991842 Z" transform="translate(-3 -3)"/>
</svg>
