<svg version="1.1" viewBox="0 0 36 36" xmlns="http://www.w3.org/2000/svg">
  <path d="m14.661 25c6.7925 0 10.508-5.3866 10.508-10.058 0-0.153 0-0.30531-0.0108-0.45693 0.72276-0.50041 1.3467-1.12 1.8425-1.8298-0.67401 0.28587-1.389 0.47335-2.1211 0.55617 0.77094-0.44178 1.3479-1.1366 1.6236-1.9552-0.72493 0.41175-1.518 0.70194-2.345 0.85803-1.1447-1.1651-2.9637-1.4503-4.437-0.6956-1.4732 0.7547-2.2344 2.3616-1.8566 3.9196-2.9694-0.14249-5.7359-1.485-7.6111-3.6933-0.98019 1.6152-0.47953 3.6815 1.1434 4.7188-0.58771-0.016673-1.1626-0.16843-1.6762-0.44245v0.044797c4.8106e-4 1.6827 1.2397 3.132 2.9628 3.4652-0.54369 0.14193-1.1141 0.16268-1.6675 0.060648 0.4838 1.44 1.8703 2.4265 3.4502 2.4549-1.3077 0.98376-2.9232 1.5178-4.5864 1.5162-0.29383-5.399e-4 -0.58737-0.017569-0.87912-0.050999 1.6889 1.0374 3.6539 1.5877 5.6606 1.5851"/>
</svg>
