<svg width="36" height="36" xmlns="http://www.w3.org/2000/svg"><g fill="none" fill-rule="evenodd"><path d="M36 25h-7a10.99 10.99 0 00-4.656-8.988l3.51-6.078C32.76 13.15 36 18.696 36 25z" fill="#68BC0C" fill-rule="nonzero"/><path d="M15.69 26.166c.669 1.208 2.288 1.59 3.617.854 1.328-.737 6.33-5.598 6.003-6.186-.326-.59-7.099 1.076-8.427 1.813-1.329.736-1.863 2.312-1.193 3.52z" fill="#717171"/><path d="M8.146 9.934l3.51 6.078A10.987 10.987 0 007 25H0c0-6.304 3.24-11.85 8.146-15.066z" fill="#F1F1F1" fill-rule="nonzero"/><path d="M18 7c2.922 0 5.682.696 8.122 1.932l-3.51 6.078A10.959 10.959 0 0018 14c-1.647 0-3.21.362-4.613 1.01L9.878 8.933A17.924 17.924 0 0118 7z" fill="#DDD" fill-rule="nonzero"/></g></svg>