<svg width="16px" height="16px" viewBox="20 18 16 16" version="1.1" xmlns="http://www.w3.org/2000/svg" xmlns:xlink="http://www.w3.org/1999/xlink">
  <path d="M35.998278,19.7048 C36.009958,19.5568 35.958918,19.41056 35.858278,19.3016 C35.757158,19.19248 35.615398,19.13072 35.466758,19.13072 L33.312998,19.13072 C33.324838,18.93344 33.333798,18.73472 33.333798,18.53328 C33.333798,18.23872 33.094438,18 32.800198,18 L23.200038,18 C22.905478,18 22.666758,18.23872 22.666758,18.53328 C22.666758,18.73488 22.674918,18.93344 22.687078,19.13072 L20.533318,19.13072 C20.384678,19.13072 20.242918,19.19248 20.141958,19.3016 C20.041158,19.41056 19.989958,19.5568 20.001638,19.7048 C20.193638,22.20496 21.715718,26.86112 26.048198,27.10768 C26.647878,27.9888 27.200038,28.88 27.200038,29.60016 C27.200038,31.80608 24.176518,32.94 24.145638,32.9472 C23.882118,33.00912 23.706278,33.2592 23.737158,33.52816 C23.768358,33.79696 23.995558,34 24.266758,34 L31.733158,34 C31.737318,33.99968 31.740998,34 31.744518,34 C32.039398,34 32.277958,33.76176 32.277958,33.46672 C32.277958,33.19712 32.078438,32.9752 31.820038,32.93888 C31.485958,32.85136 28.800038,31.68976 28.800038,29.60016 C28.800038,28.88 29.352038,27.9888 29.952198,27.10768 C34.284838,26.86112 35.806438,22.20496 35.998278,19.7048 L35.998278,19.7048 Z M21.137158,20.19728 L22.811558,20.19728 C23.190598,22.46048 24.267238,24.40064 25.254438,25.92208 C22.225958,25.18896 21.360678,21.61888 21.137158,20.19728 L21.137158,20.19728 Z M34.863558,20.19728 C34.639238,21.61888 33.773798,25.18896 30.745638,25.92208 C31.732998,24.40064 32.809318,22.46048 33.187878,20.19728 L34.863558,20.19728 L34.863558,20.19728 Z" id="Shape" stroke="none" fill="#999999" fill-rule="evenodd"></path>
</svg>
